<svg xmlns="http://www.w3.org/2000/svg" viewBox="0 0 280 320" fill="none">
  <circle cx="140" cy="110" r="85" stroke="#f1e6c8" stroke-width="4" fill="none"/>
  <path d="M90 170 Q95 120 105 80 Q110 110 108 170" stroke="#f1e6c8" stroke-width="3" fill="none" stroke-linecap="round"/>
  <path d="M108 170 Q115 100 130 60 Q135 100 128 170" stroke="#f1e6c8" stroke-width="3" fill="none" stroke-linecap="round"/>
  <path d="M125 170 Q135 90 155 50 Q160 100 148 170" stroke="#f1e6c8" stroke-width="3" fill="none" stroke-linecap="round"/>
  <path d="M145 170 Q155 110 170 80 Q172 120 162 170" stroke="#f1e6c8" stroke-width="3" fill="none" stroke-linecap="round"/>
  <path d="M160 170 Q175 130 195 120 Q185 150 170 170" stroke="#f1e6c8" stroke-width="3" fill="none" stroke-linecap="round"/>
  <path d="M100 155 Q140 140 180 150 Q200 155 210 165" stroke="#f1e6c8" stroke-width="4" fill="none" stroke-linecap="round"/>
  <path d="M110 170 Q150 160 190 170" stroke="#f1e6c8" stroke-width="3" fill="none" stroke-linecap="round"/>
  <path d="M85 175 Q140 165 195 175" stroke="#f1e6c8" stroke-width="2.5" fill="none" stroke-linecap="round"/>
  <path d="M120 182 Q160 178 180 182" stroke="#f1e6c8" stroke-width="2" fill="none" stroke-linecap="round"/>
  <text x="140" y="245" text-anchor="middle" font-family="Cormorant Garamond, serif" font-size="42" font-weight="400" letter-spacing="12" fill="#f1e6c8">РИПАРИЙ</text>
  <text x="140" y="275" text-anchor="middle" font-family="Inter, sans-serif" font-size="11" font-weight="400" letter-spacing="6" fill="#f1e6c8">СТУДИЯ АКВАДИЗАЙНА</text>
</svg>
